<mxfile host="Electron" modified="2023-10-10T13:43:20.067Z" agent="Mozilla/5.0 (Windows NT 10.0; Win64; x64) AppleWebKit/537.36 (KHTML, like Gecko) draw.io/22.0.2 Chrome/114.0.5735.289 Electron/25.8.4 Safari/537.36" etag="-PEammwGvejC784MlMfm" version="22.0.2" type="device">
  <diagram name="Page-1" id="9lWi3ugb0nfQhqkDHd8H">
    <mxGraphModel dx="3351" dy="688" grid="1" gridSize="10" guides="1" tooltips="1" connect="1" arrows="1" fold="1" page="1" pageScale="1" pageWidth="1700" pageHeight="1100" math="0" shadow="0">
      <root>
        <mxCell id="0" />
        <mxCell id="1" parent="0" />
        <mxCell id="ceAIdKaY7GNkZQIhl2np-13" value="&lt;font style=&quot;font-size: 20px;&quot;&gt;&lt;b&gt;Sellers&lt;/b&gt;&lt;/font&gt;" style="rounded=1;whiteSpace=wrap;html=1;strokeColor=#0e8088;fillColor=#b0e3e6;labelBackgroundColor=none;strokeWidth=2;" parent="1" vertex="1">
          <mxGeometry x="130" y="185" width="120" height="60" as="geometry" />
        </mxCell>
        <mxCell id="ceAIdKaY7GNkZQIhl2np-14" value="&lt;u&gt;&lt;font style=&quot;font-size: 14px;&quot;&gt;&lt;b&gt;seller_id&lt;/b&gt;&lt;/font&gt;&lt;/u&gt;" style="ellipse;whiteSpace=wrap;html=1;strokeColor=#0e8088;fillColor=#FFF2CC;labelBackgroundColor=none;rounded=1;strokeWidth=2;" parent="1" vertex="1">
          <mxGeometry x="150.00000000000003" y="30" width="90" height="40" as="geometry" />
        </mxCell>
        <mxCell id="ceAIdKaY7GNkZQIhl2np-15" value="&lt;font style=&quot;font-size: 14px;&quot;&gt;&lt;b&gt;location_zip_code&lt;/b&gt;&lt;/font&gt;" style="ellipse;whiteSpace=wrap;html=1;strokeColor=#0e8088;fillColor=#b0e3e6;labelBackgroundColor=none;rounded=1;strokeWidth=2;" parent="1" vertex="1">
          <mxGeometry x="20" y="60" width="150" height="40" as="geometry" />
        </mxCell>
        <mxCell id="ceAIdKaY7GNkZQIhl2np-16" value="&lt;font style=&quot;font-size: 14px;&quot;&gt;&lt;b&gt;name&lt;/b&gt;&lt;/font&gt;" style="ellipse;whiteSpace=wrap;html=1;strokeColor=#0e8088;fillColor=#b0e3e6;labelBackgroundColor=none;rounded=1;strokeWidth=2;" parent="1" vertex="1">
          <mxGeometry x="-10.000000000000057" y="160" width="130" height="40" as="geometry" />
        </mxCell>
        <mxCell id="ceAIdKaY7GNkZQIhl2np-17" value="&lt;font style=&quot;font-size: 14px;&quot;&gt;&lt;b&gt;city&lt;/b&gt;&lt;/font&gt;" style="ellipse;whiteSpace=wrap;html=1;strokeColor=#0e8088;fillColor=#b0e3e6;labelBackgroundColor=none;rounded=1;strokeWidth=2;" parent="1" vertex="1">
          <mxGeometry x="205" y="80" width="95" height="40" as="geometry" />
        </mxCell>
        <mxCell id="ceAIdKaY7GNkZQIhl2np-18" value="&lt;font style=&quot;font-size: 14px;&quot;&gt;&lt;b&gt;state&lt;/b&gt;&lt;/font&gt;" style="ellipse;whiteSpace=wrap;html=1;strokeColor=#0e8088;fillColor=#b0e3e6;labelBackgroundColor=none;rounded=1;strokeWidth=2;" parent="1" vertex="1">
          <mxGeometry x="260" y="120" width="110" height="50" as="geometry" />
        </mxCell>
        <mxCell id="ceAIdKaY7GNkZQIhl2np-19" value="" style="endArrow=none;html=1;rounded=0;exitX=0.58;exitY=1.009;exitDx=0;exitDy=0;fillColor=#b0e3e6;strokeColor=#0e8088;exitPerimeter=0;" parent="1" source="ceAIdKaY7GNkZQIhl2np-15" edge="1">
          <mxGeometry width="50" height="50" relative="1" as="geometry">
            <mxPoint x="130" y="180" as="sourcePoint" />
            <mxPoint x="140" y="180" as="targetPoint" />
          </mxGeometry>
        </mxCell>
        <mxCell id="ceAIdKaY7GNkZQIhl2np-20" value="" style="endArrow=none;html=1;rounded=0;exitX=0.319;exitY=1.05;exitDx=0;exitDy=0;entryX=0.419;entryY=0.027;entryDx=0;entryDy=0;entryPerimeter=0;fillColor=#b0e3e6;strokeColor=#0e8088;exitPerimeter=0;" parent="1" source="ceAIdKaY7GNkZQIhl2np-14" target="ceAIdKaY7GNkZQIhl2np-13" edge="1">
          <mxGeometry width="50" height="50" relative="1" as="geometry">
            <mxPoint x="190" y="185" as="sourcePoint" />
            <mxPoint x="240" y="135" as="targetPoint" />
          </mxGeometry>
        </mxCell>
        <mxCell id="ceAIdKaY7GNkZQIhl2np-21" value="" style="endArrow=none;html=1;rounded=0;entryX=0.202;entryY=0.848;entryDx=0;entryDy=0;entryPerimeter=0;exitX=0.5;exitY=0;exitDx=0;exitDy=0;fillColor=#b0e3e6;strokeColor=#0e8088;" parent="1" source="ceAIdKaY7GNkZQIhl2np-13" target="ceAIdKaY7GNkZQIhl2np-17" edge="1">
          <mxGeometry width="50" height="50" relative="1" as="geometry">
            <mxPoint x="230" y="190" as="sourcePoint" />
            <mxPoint x="280" y="140" as="targetPoint" />
          </mxGeometry>
        </mxCell>
        <mxCell id="ceAIdKaY7GNkZQIhl2np-22" value="" style="endArrow=none;html=1;rounded=0;exitX=0.825;exitY=-0.033;exitDx=0;exitDy=0;entryX=0;entryY=0.5;entryDx=0;entryDy=0;fillColor=#b0e3e6;strokeColor=#0e8088;exitPerimeter=0;" parent="1" source="ceAIdKaY7GNkZQIhl2np-13" target="ceAIdKaY7GNkZQIhl2np-18" edge="1">
          <mxGeometry width="50" height="50" relative="1" as="geometry">
            <mxPoint x="-55" y="310" as="sourcePoint" />
            <mxPoint x="305" y="250" as="targetPoint" />
          </mxGeometry>
        </mxCell>
        <mxCell id="ceAIdKaY7GNkZQIhl2np-23" value="" style="endArrow=none;html=1;rounded=0;exitX=0;exitY=0.5;exitDx=0;exitDy=0;fillColor=#b0e3e6;strokeColor=#0e8088;entryX=0.762;entryY=0.975;entryDx=0;entryDy=0;entryPerimeter=0;" parent="1" source="ceAIdKaY7GNkZQIhl2np-13" target="ceAIdKaY7GNkZQIhl2np-16" edge="1">
          <mxGeometry width="50" height="50" relative="1" as="geometry">
            <mxPoint x="275" y="305" as="sourcePoint" />
            <mxPoint x="100" y="200" as="targetPoint" />
          </mxGeometry>
        </mxCell>
        <mxCell id="ceAIdKaY7GNkZQIhl2np-24" value="" style="endArrow=none;dashed=1;html=1;rounded=0;" parent="1" edge="1">
          <mxGeometry width="50" height="50" relative="1" as="geometry">
            <mxPoint x="107.38999999999999" y="91.58000000000001" as="sourcePoint" />
            <mxPoint x="54.25999999999999" y="92.11000000000004" as="targetPoint" />
            <Array as="points">
              <mxPoint x="137.39" y="90.78999999999999" />
            </Array>
          </mxGeometry>
        </mxCell>
        <mxCell id="ceAIdKaY7GNkZQIhl2np-25" value="&lt;b&gt;&lt;font style=&quot;font-size: 20px;&quot;&gt;&amp;nbsp;payments&lt;/font&gt;&lt;/b&gt;" style="rounded=1;whiteSpace=wrap;html=1;strokeColor=#0e8088;fillColor=#b0e3e6;labelBackgroundColor=none;strokeWidth=2;" parent="1" vertex="1">
          <mxGeometry x="1315.41" y="380" width="160" height="40" as="geometry" />
        </mxCell>
        <mxCell id="ceAIdKaY7GNkZQIhl2np-26" value="&lt;b&gt;&lt;font style=&quot;font-size: 14px;&quot;&gt;order_id&lt;/font&gt;&lt;/b&gt;" style="ellipse;whiteSpace=wrap;html=1;strokeColor=#0e8088;fillColor=#b0e3e6;labelBackgroundColor=none;rounded=1;strokeWidth=2;" parent="1" vertex="1">
          <mxGeometry x="1487.6599999999999" y="290" width="70" height="40" as="geometry" />
        </mxCell>
        <mxCell id="ceAIdKaY7GNkZQIhl2np-27" value="&lt;b&gt;&lt;font style=&quot;font-size: 14px;&quot;&gt;sequential&lt;/font&gt;&lt;/b&gt;" style="ellipse;whiteSpace=wrap;html=1;strokeColor=#0e8088;fillColor=#b0e3e6;labelBackgroundColor=none;rounded=1;strokeWidth=2;" parent="1" vertex="1">
          <mxGeometry x="1333.5299999999997" y="300" width="123.75" height="30" as="geometry" />
        </mxCell>
        <mxCell id="ceAIdKaY7GNkZQIhl2np-28" value="&lt;u&gt;&lt;b&gt;&lt;font style=&quot;font-size: 14px;&quot;&gt;type&lt;/font&gt;&lt;/b&gt;&lt;/u&gt;" style="ellipse;whiteSpace=wrap;html=1;strokeColor=#0e8088;fillColor=#FFF2CC;labelBackgroundColor=none;rounded=1;strokeWidth=2;" parent="1" vertex="1">
          <mxGeometry x="1412.4900000000002" y="488.36" width="113.75" height="30" as="geometry" />
        </mxCell>
        <mxCell id="ceAIdKaY7GNkZQIhl2np-29" value="&lt;u&gt;&lt;b&gt;&lt;font style=&quot;font-size: 14px;&quot;&gt;amounts&lt;/font&gt;&lt;/b&gt;&lt;/u&gt;" style="ellipse;whiteSpace=wrap;html=1;strokeColor=#0e8088;fillColor=#FFF2CC;labelBackgroundColor=none;rounded=1;strokeWidth=2;" parent="1" vertex="1">
          <mxGeometry x="1545.41" y="460" width="125" height="40" as="geometry" />
        </mxCell>
        <mxCell id="ceAIdKaY7GNkZQIhl2np-30" value="&lt;u&gt;&lt;b&gt;&lt;font style=&quot;font-size: 14px;&quot;&gt;value&lt;/font&gt;&lt;/b&gt;&lt;/u&gt;" style="ellipse;whiteSpace=wrap;html=1;strokeColor=#0e8088;fillColor=#FFF2CC;labelBackgroundColor=none;rounded=1;strokeWidth=2;" parent="1" vertex="1">
          <mxGeometry x="1555.41" y="386.86" width="105" height="40" as="geometry" />
        </mxCell>
        <mxCell id="ceAIdKaY7GNkZQIhl2np-31" value="" style="endArrow=none;html=1;rounded=0;exitX=1;exitY=0.25;exitDx=0;exitDy=0;fillColor=#b0e3e6;strokeColor=#0e8088;entryX=0;entryY=0.5;entryDx=0;entryDy=0;" parent="1" source="ceAIdKaY7GNkZQIhl2np-25" target="ceAIdKaY7GNkZQIhl2np-30" edge="1">
          <mxGeometry width="50" height="50" relative="1" as="geometry">
            <mxPoint x="1376.66" y="-123.06999999999994" as="sourcePoint" />
            <mxPoint x="1401.0600000000002" y="-221.77999999999997" as="targetPoint" />
          </mxGeometry>
        </mxCell>
        <mxCell id="ceAIdKaY7GNkZQIhl2np-32" value="" style="endArrow=none;html=1;rounded=0;entryX=0;entryY=0;entryDx=0;entryDy=0;fillColor=#b0e3e6;strokeColor=#0e8088;exitX=0.911;exitY=1.038;exitDx=0;exitDy=0;exitPerimeter=0;" parent="1" source="ceAIdKaY7GNkZQIhl2np-25" target="ceAIdKaY7GNkZQIhl2np-29" edge="1">
          <mxGeometry width="50" height="50" relative="1" as="geometry">
            <mxPoint x="1385.41" y="288.22" as="sourcePoint" />
            <mxPoint x="1330.03" y="-204.00000000000006" as="targetPoint" />
          </mxGeometry>
        </mxCell>
        <mxCell id="ceAIdKaY7GNkZQIhl2np-33" value="" style="endArrow=none;html=1;rounded=0;fillColor=#b0e3e6;strokeColor=#0e8088;entryX=0.5;entryY=1;entryDx=0;entryDy=0;" parent="1" target="ceAIdKaY7GNkZQIhl2np-27" edge="1">
          <mxGeometry width="50" height="50" relative="1" as="geometry">
            <mxPoint x="1420.41" y="383.29" as="sourcePoint" />
            <mxPoint x="1475.41" y="343.29" as="targetPoint" />
            <Array as="points" />
          </mxGeometry>
        </mxCell>
        <mxCell id="ceAIdKaY7GNkZQIhl2np-34" value="" style="endArrow=none;html=1;rounded=0;fillColor=#b0e3e6;strokeColor=#0e8088;entryX=0.281;entryY=0.139;entryDx=0;entryDy=0;entryPerimeter=0;" parent="1" target="ceAIdKaY7GNkZQIhl2np-28" edge="1">
          <mxGeometry width="50" height="50" relative="1" as="geometry">
            <mxPoint x="1385.41" y="418.22" as="sourcePoint" />
            <mxPoint x="1445.41" y="478.22" as="targetPoint" />
          </mxGeometry>
        </mxCell>
        <mxCell id="ceAIdKaY7GNkZQIhl2np-35" value="" style="endArrow=none;html=1;rounded=0;fillColor=#b0e3e6;strokeColor=#0e8088;exitX=0.5;exitY=1;exitDx=0;exitDy=0;" parent="1" source="ceAIdKaY7GNkZQIhl2np-26" edge="1">
          <mxGeometry width="50" height="50" relative="1" as="geometry">
            <mxPoint x="1590" y="340" as="sourcePoint" />
            <mxPoint x="1469.42" y="380" as="targetPoint" />
            <Array as="points">
              <mxPoint x="1469.42" y="380" />
            </Array>
          </mxGeometry>
        </mxCell>
        <mxCell id="ceAIdKaY7GNkZQIhl2np-36" value="" style="endArrow=none;dashed=1;html=1;rounded=0;entryX=-0.034;entryY=0.721;entryDx=0;entryDy=0;entryPerimeter=0;" parent="1" target="ceAIdKaY7GNkZQIhl2np-26" edge="1">
          <mxGeometry width="50" height="50" relative="1" as="geometry">
            <mxPoint x="1580" y="320" as="sourcePoint" />
            <mxPoint x="1570" y="328" as="targetPoint" />
            <Array as="points">
              <mxPoint x="1560" y="320" />
            </Array>
          </mxGeometry>
        </mxCell>
        <mxCell id="XZni-A_5DqYlkL6BBme9-1" value="&lt;b&gt;&lt;font style=&quot;font-size: 20px;&quot;&gt;order items&amp;nbsp;&lt;/font&gt;&lt;/b&gt;" style="rounded=1;whiteSpace=wrap;html=1;strokeColor=#0e8088;fillColor=#b0e3e6;labelBackgroundColor=none;strokeWidth=2;" parent="1" vertex="1">
          <mxGeometry x="628.49" y="170" width="120" height="60" as="geometry" />
        </mxCell>
        <mxCell id="XZni-A_5DqYlkL6BBme9-3" value="&lt;font style=&quot;font-size: 14px;&quot;&gt;&lt;b&gt;order_id&lt;/b&gt;&lt;/font&gt;" style="ellipse;whiteSpace=wrap;html=1;strokeColor=#0e8088;fillColor=#b0e3e6;labelBackgroundColor=none;rounded=1;strokeWidth=2;" parent="1" vertex="1">
          <mxGeometry x="440" y="135" width="100" height="30" as="geometry" />
        </mxCell>
        <mxCell id="XZni-A_5DqYlkL6BBme9-4" value="&lt;u&gt;&lt;font style=&quot;font-size: 14px;&quot;&gt;&lt;b&gt;order_item_id&lt;/b&gt;&lt;/font&gt;&lt;/u&gt;" style="ellipse;whiteSpace=wrap;html=1;strokeColor=#0e8088;fillColor=#FFF2CC;labelBackgroundColor=none;rounded=1;strokeWidth=2;" parent="1" vertex="1">
          <mxGeometry x="450.74" y="85" width="120" height="40" as="geometry" />
        </mxCell>
        <mxCell id="XZni-A_5DqYlkL6BBme9-5" value="&lt;font style=&quot;font-size: 14px;&quot;&gt;&lt;b&gt;product_id&lt;/b&gt;&lt;/font&gt;" style="ellipse;whiteSpace=wrap;html=1;strokeColor=#0e8088;fillColor=#b0e3e6;labelBackgroundColor=none;rounded=1;strokeWidth=2;" parent="1" vertex="1">
          <mxGeometry x="710.74" y="55" width="90" height="45" as="geometry" />
        </mxCell>
        <mxCell id="XZni-A_5DqYlkL6BBme9-7" value="&lt;font style=&quot;font-size: 14px;&quot;&gt;price&lt;/font&gt;" style="ellipse;whiteSpace=wrap;html=1;strokeColor=#0e8088;fillColor=#b0e3e6;labelBackgroundColor=none;rounded=1;strokeWidth=2;" parent="1" vertex="1">
          <mxGeometry x="810" y="175.78999999999996" width="100" height="40" as="geometry" />
        </mxCell>
        <mxCell id="XZni-A_5DqYlkL6BBme9-8" value="&lt;font style=&quot;font-size: 14px;&quot;&gt;&lt;b&gt;freight_value&lt;/b&gt;&lt;/font&gt;" style="ellipse;whiteSpace=wrap;html=1;strokeColor=#0e8088;fillColor=#b0e3e6;labelBackgroundColor=none;rounded=1;strokeWidth=2;" parent="1" vertex="1">
          <mxGeometry x="810" y="123.28999999999999" width="100" height="30" as="geometry" />
        </mxCell>
        <mxCell id="XZni-A_5DqYlkL6BBme9-9" value="" style="endArrow=none;html=1;rounded=0;exitX=0.25;exitY=0;exitDx=0;exitDy=0;fillColor=#b0e3e6;strokeColor=#0e8088;" parent="1" source="XZni-A_5DqYlkL6BBme9-1" target="XZni-A_5DqYlkL6BBme9-4" edge="1">
          <mxGeometry width="50" height="50" relative="1" as="geometry">
            <mxPoint x="543.49" y="250" as="sourcePoint" />
            <mxPoint x="593.49" y="200" as="targetPoint" />
            <Array as="points">
              <mxPoint x="613.74" y="150" />
            </Array>
          </mxGeometry>
        </mxCell>
        <mxCell id="XZni-A_5DqYlkL6BBme9-10" value="" style="endArrow=none;html=1;rounded=0;entryX=1;entryY=1;entryDx=0;entryDy=0;fillColor=#b0e3e6;strokeColor=#0e8088;exitX=0.019;exitY=0.333;exitDx=0;exitDy=0;exitPerimeter=0;" parent="1" source="XZni-A_5DqYlkL6BBme9-1" target="XZni-A_5DqYlkL6BBme9-3" edge="1">
          <mxGeometry width="50" height="50" relative="1" as="geometry">
            <mxPoint x="620.74" y="190" as="sourcePoint" />
            <mxPoint x="608.49" y="200" as="targetPoint" />
            <Array as="points" />
          </mxGeometry>
        </mxCell>
        <mxCell id="XZni-A_5DqYlkL6BBme9-11" value="" style="endArrow=none;html=1;rounded=0;entryX=0;entryY=0.5;entryDx=0;entryDy=0;fillColor=#b0e3e6;strokeColor=#0e8088;exitX=1;exitY=0.5;exitDx=0;exitDy=0;" parent="1" source="XZni-A_5DqYlkL6BBme9-1" target="XZni-A_5DqYlkL6BBme9-7" edge="1">
          <mxGeometry width="50" height="50" relative="1" as="geometry">
            <mxPoint x="748.74" y="215" as="sourcePoint" />
            <mxPoint x="1010.74" y="340" as="targetPoint" />
          </mxGeometry>
        </mxCell>
        <mxCell id="XZni-A_5DqYlkL6BBme9-14" value="" style="endArrow=none;html=1;rounded=0;entryX=0;entryY=1;entryDx=0;entryDy=0;exitX=0.941;exitY=0.046;exitDx=0;exitDy=0;fillColor=#b0e3e6;strokeColor=#0e8088;exitPerimeter=0;" parent="1" source="XZni-A_5DqYlkL6BBme9-1" target="XZni-A_5DqYlkL6BBme9-8" edge="1">
          <mxGeometry width="50" height="50" relative="1" as="geometry">
            <mxPoint x="812.24" y="310" as="sourcePoint" />
            <mxPoint x="862.24" y="260" as="targetPoint" />
          </mxGeometry>
        </mxCell>
        <mxCell id="XZni-A_5DqYlkL6BBme9-15" value="" style="endArrow=none;html=1;rounded=0;fillColor=#b0e3e6;strokeColor=#0e8088;entryX=0.315;entryY=1.054;entryDx=0;entryDy=0;entryPerimeter=0;" parent="1" target="XZni-A_5DqYlkL6BBme9-5" edge="1">
          <mxGeometry width="50" height="50" relative="1" as="geometry">
            <mxPoint x="718.74" y="170" as="sourcePoint" />
            <mxPoint x="750.74" y="130" as="targetPoint" />
          </mxGeometry>
        </mxCell>
        <mxCell id="XZni-A_5DqYlkL6BBme9-16" value="" style="endArrow=none;html=1;rounded=0;fillColor=#b0e3e6;strokeColor=#0e8088;" parent="1" edge="1">
          <mxGeometry width="50" height="50" relative="1" as="geometry">
            <mxPoint x="670.74" y="170" as="sourcePoint" />
            <mxPoint x="660.74" y="120" as="targetPoint" />
          </mxGeometry>
        </mxCell>
        <mxCell id="XZni-A_5DqYlkL6BBme9-17" value="" style="endArrow=none;dashed=1;html=1;rounded=0;" parent="1" edge="1">
          <mxGeometry width="50" height="50" relative="1" as="geometry">
            <mxPoint x="516.56" y="158.95" as="sourcePoint" />
            <mxPoint x="463.43000000000006" y="159.48000000000002" as="targetPoint" />
            <Array as="points">
              <mxPoint x="516.56" y="158.95" />
            </Array>
          </mxGeometry>
        </mxCell>
        <mxCell id="XZni-A_5DqYlkL6BBme9-19" value="" style="endArrow=none;dashed=1;html=1;rounded=0;" parent="1" edge="1">
          <mxGeometry width="50" height="50" relative="1" as="geometry">
            <mxPoint x="785.6299999999999" y="85" as="sourcePoint" />
            <mxPoint x="732.5" y="85.53000000000003" as="targetPoint" />
            <Array as="points">
              <mxPoint x="785.6299999999999" y="85" />
            </Array>
          </mxGeometry>
        </mxCell>
        <mxCell id="XZni-A_5DqYlkL6BBme9-21" value="&lt;font style=&quot;font-size: 14px;&quot;&gt;&lt;b&gt;shipping_limit_date&lt;/b&gt;&lt;/font&gt;" style="ellipse;whiteSpace=wrap;html=1;strokeColor=#0e8088;fillColor=#b0e3e6;labelBackgroundColor=none;rounded=1;strokeWidth=2;" parent="1" vertex="1">
          <mxGeometry x="586" y="85" width="140.74" height="40" as="geometry" />
        </mxCell>
        <mxCell id="XZni-A_5DqYlkL6BBme9-22" value="&lt;b&gt;&lt;font style=&quot;font-size: 20px;&quot;&gt;Orders&lt;/font&gt;&lt;/b&gt;" style="rounded=1;whiteSpace=wrap;html=1;strokeColor=#0e8088;fillColor=#b0e3e6;labelBackgroundColor=none;strokeWidth=2;" parent="1" vertex="1">
          <mxGeometry x="1211.92" y="650" width="120" height="60" as="geometry" />
        </mxCell>
        <mxCell id="XZni-A_5DqYlkL6BBme9-23" value="&lt;font style=&quot;font-size: 14px;&quot;&gt;&lt;b&gt;customer_id&lt;/b&gt;&lt;/font&gt;" style="ellipse;whiteSpace=wrap;html=1;strokeColor=#0e8088;fillColor=#b0e3e6;labelBackgroundColor=none;rounded=1;strokeWidth=2;" parent="1" vertex="1">
          <mxGeometry x="1101.25" y="770.38" width="107.5" height="40" as="geometry" />
        </mxCell>
        <mxCell id="XZni-A_5DqYlkL6BBme9-24" value="" style="endArrow=none;html=1;rounded=0;exitX=1;exitY=0.5;exitDx=0;exitDy=0;entryX=0;entryY=0.25;entryDx=0;entryDy=0;fillColor=#b0e3e6;strokeColor=#0e8088;" parent="1" source="XZni-A_5DqYlkL6BBme9-51" target="XZni-A_5DqYlkL6BBme9-22" edge="1">
          <mxGeometry width="50" height="50" relative="1" as="geometry">
            <mxPoint x="1048.6599999999999" y="629.5999999999999" as="sourcePoint" />
            <mxPoint x="1151.92" y="590" as="targetPoint" />
            <Array as="points" />
          </mxGeometry>
        </mxCell>
        <mxCell id="XZni-A_5DqYlkL6BBme9-25" value="" style="endArrow=none;html=1;rounded=0;exitX=1;exitY=0.25;exitDx=0;exitDy=0;entryX=0.022;entryY=0.28;entryDx=0;entryDy=0;fillColor=#b0e3e6;strokeColor=#0e8088;entryPerimeter=0;" parent="1" edge="1" target="XZni-A_5DqYlkL6BBme9-55" source="XZni-A_5DqYlkL6BBme9-22">
          <mxGeometry width="50" height="50" relative="1" as="geometry">
            <mxPoint x="1331.92" y="650.67" as="sourcePoint" />
            <mxPoint x="1479.064660940694" y="655.8578643762776" as="targetPoint" />
          </mxGeometry>
        </mxCell>
        <mxCell id="XZni-A_5DqYlkL6BBme9-26" value="" style="endArrow=none;html=1;rounded=0;entryX=1;entryY=0.5;entryDx=0;entryDy=0;exitX=0;exitY=0;exitDx=0;exitDy=0;fillColor=#b0e3e6;strokeColor=#0e8088;" parent="1" target="XZni-A_5DqYlkL6BBme9-22" edge="1">
          <mxGeometry width="50" height="50" relative="1" as="geometry">
            <mxPoint x="1374.0646609406726" y="695.8578643762694" as="sourcePoint" />
            <mxPoint x="1304.67" y="765" as="targetPoint" />
            <Array as="points">
              <mxPoint x="1400" y="710" />
            </Array>
          </mxGeometry>
        </mxCell>
        <mxCell id="XZni-A_5DqYlkL6BBme9-27" value="" style="endArrow=none;html=1;rounded=0;entryX=0.695;entryY=0.974;entryDx=0;entryDy=0;fillColor=#b0e3e6;strokeColor=#0e8088;entryPerimeter=0;" parent="1" target="XZni-A_5DqYlkL6BBme9-22" edge="1">
          <mxGeometry width="50" height="50" relative="1" as="geometry">
            <mxPoint x="1310" y="740" as="sourcePoint" />
            <mxPoint x="1254.67" y="770" as="targetPoint" />
          </mxGeometry>
        </mxCell>
        <mxCell id="XZni-A_5DqYlkL6BBme9-28" value="" style="endArrow=none;html=1;rounded=0;entryX=0.314;entryY=0.977;entryDx=0;entryDy=0;entryPerimeter=0;fillColor=#b0e3e6;strokeColor=#0e8088;exitX=0.5;exitY=0;exitDx=0;exitDy=0;" parent="1" target="XZni-A_5DqYlkL6BBme9-22" edge="1" source="XZni-A_5DqYlkL6BBme9-52">
          <mxGeometry width="50" height="50" relative="1" as="geometry">
            <mxPoint x="1212.6599999999999" y="751.36" as="sourcePoint" />
            <mxPoint x="1269.67" y="765" as="targetPoint" />
          </mxGeometry>
        </mxCell>
        <mxCell id="XZni-A_5DqYlkL6BBme9-29" value="" style="endArrow=none;html=1;rounded=0;fillColor=#b0e3e6;strokeColor=#0e8088;exitX=0.733;exitY=-0.01;exitDx=0;exitDy=0;exitPerimeter=0;" parent="1" edge="1" source="XZni-A_5DqYlkL6BBme9-23">
          <mxGeometry width="50" height="50" relative="1" as="geometry">
            <mxPoint x="1140" y="750" as="sourcePoint" />
            <mxPoint x="1221.2199999999998" y="710" as="targetPoint" />
          </mxGeometry>
        </mxCell>
        <mxCell id="XZni-A_5DqYlkL6BBme9-30" value="" style="endArrow=none;dashed=1;html=1;rounded=0;" parent="1" edge="1">
          <mxGeometry width="50" height="50" relative="1" as="geometry">
            <mxPoint x="1163.21" y="802.11" as="sourcePoint" />
            <mxPoint x="1110" y="801.64" as="targetPoint" />
            <Array as="points">
              <mxPoint x="1181.7399999999998" y="801.61" />
              <mxPoint x="1163.13" y="801.11" />
            </Array>
          </mxGeometry>
        </mxCell>
        <mxCell id="XZni-A_5DqYlkL6BBme9-51" value="&lt;font style=&quot;font-size: 14px;&quot;&gt;&lt;b&gt;purchase_date&lt;/b&gt;&lt;/font&gt;" style="ellipse;whiteSpace=wrap;html=1;strokeColor=#0e8088;fillColor=#b0e3e6;labelBackgroundColor=none;rounded=1;strokeWidth=2;" parent="1" vertex="1">
          <mxGeometry x="1020" y="695" width="100" height="40" as="geometry" />
        </mxCell>
        <mxCell id="XZni-A_5DqYlkL6BBme9-52" value="&lt;b&gt;&lt;font style=&quot;font-size: 14px;&quot;&gt;approved_date&lt;/font&gt;&lt;/b&gt;" style="ellipse;whiteSpace=wrap;html=1;strokeColor=#0e8088;fillColor=#b0e3e6;labelBackgroundColor=none;rounded=1;strokeWidth=2;" parent="1" vertex="1">
          <mxGeometry x="1199.9999999999998" y="781.78" width="100" height="40" as="geometry" />
        </mxCell>
        <mxCell id="XZni-A_5DqYlkL6BBme9-53" value="&lt;b&gt;&lt;font style=&quot;font-size: 14px;&quot;&gt;Destimated_date&lt;/font&gt;&lt;/b&gt;" style="ellipse;whiteSpace=wrap;html=1;strokeColor=#0e8088;fillColor=#b0e3e6;labelBackgroundColor=none;rounded=1;strokeWidth=2;" parent="1" vertex="1">
          <mxGeometry x="1281.4" y="741.78" width="118.6" height="40" as="geometry" />
        </mxCell>
        <mxCell id="XZni-A_5DqYlkL6BBme9-54" value="&lt;b&gt;&lt;font style=&quot;font-size: 14px;&quot;&gt;Dcarrier_date&lt;/font&gt;&lt;/b&gt;" style="ellipse;whiteSpace=wrap;html=1;strokeColor=#0e8088;fillColor=#b0e3e6;labelBackgroundColor=none;rounded=1;strokeWidth=2;" parent="1" vertex="1">
          <mxGeometry x="1381.3999999999999" y="705.38" width="100" height="40" as="geometry" />
        </mxCell>
        <mxCell id="XZni-A_5DqYlkL6BBme9-55" value="&lt;b&gt;&lt;font style=&quot;font-size: 14px;&quot;&gt;dcustomer_date&lt;/font&gt;&lt;/b&gt;" style="ellipse;whiteSpace=wrap;html=1;strokeColor=#0e8088;fillColor=#b0e3e6;labelBackgroundColor=none;rounded=1;strokeWidth=2;" parent="1" vertex="1">
          <mxGeometry x="1462.3700000000001" y="676.78" width="120.58" height="40" as="geometry" />
        </mxCell>
        <mxCell id="XZni-A_5DqYlkL6BBme9-60" value="&lt;font style=&quot;font-size: 20px;&quot;&gt;&lt;b&gt;Customers&lt;/b&gt;&lt;/font&gt;" style="rounded=1;whiteSpace=wrap;html=1;strokeColor=#0e8088;fillColor=#b0e3e6;labelBackgroundColor=none;strokeWidth=2;" parent="1" vertex="1">
          <mxGeometry x="-30" y="340" width="120" height="80" as="geometry" />
        </mxCell>
        <mxCell id="XZni-A_5DqYlkL6BBme9-61" value="&lt;u&gt;&lt;font style=&quot;font-size: 14px;&quot;&gt;&lt;b&gt;customer_id&lt;/b&gt;&lt;/font&gt;&lt;/u&gt;" style="ellipse;whiteSpace=wrap;html=1;strokeColor=#0e8088;fillColor=#FFF2CC;labelBackgroundColor=none;rounded=1;strokeWidth=2;" parent="1" vertex="1">
          <mxGeometry x="-310" y="380" width="127.5" height="50" as="geometry" />
        </mxCell>
        <mxCell id="XZni-A_5DqYlkL6BBme9-62" value="&lt;font style=&quot;font-size: 14px;&quot;&gt;&lt;b&gt;customer_unique_id&lt;/b&gt;&lt;/font&gt;" style="ellipse;whiteSpace=wrap;html=1;strokeColor=#0e8088;fillColor=#b0e3e6;labelBackgroundColor=none;rounded=1;strokeWidth=2;" parent="1" vertex="1">
          <mxGeometry x="-142.5" y="280" width="140" height="40" as="geometry" />
        </mxCell>
        <mxCell id="XZni-A_5DqYlkL6BBme9-64" value="&lt;font style=&quot;font-size: 14px;&quot;&gt;&lt;b&gt;location_zip_code&lt;/b&gt;&lt;/font&gt;" style="ellipse;whiteSpace=wrap;html=1;strokeColor=#0e8088;fillColor=#b0e3e6;labelBackgroundColor=none;rounded=1;strokeWidth=2;" parent="1" vertex="1">
          <mxGeometry x="-275" y="315" width="150" height="50" as="geometry" />
        </mxCell>
        <mxCell id="XZni-A_5DqYlkL6BBme9-65" value="&lt;font style=&quot;font-size: 14px;&quot;&gt;&lt;b&gt;city&lt;/b&gt;&lt;/font&gt;" style="ellipse;whiteSpace=wrap;html=1;strokeColor=#0e8088;fillColor=#b0e3e6;labelBackgroundColor=none;rounded=1;strokeWidth=2;" parent="1" vertex="1">
          <mxGeometry x="-360" y="445" width="120" height="40" as="geometry" />
        </mxCell>
        <mxCell id="XZni-A_5DqYlkL6BBme9-66" value="&lt;font style=&quot;font-size: 14px;&quot;&gt;&lt;b&gt;state&lt;/b&gt;&lt;/font&gt;" style="ellipse;whiteSpace=wrap;html=1;strokeColor=#0e8088;fillColor=#b0e3e6;labelBackgroundColor=none;rounded=1;strokeWidth=2;" parent="1" vertex="1">
          <mxGeometry x="-262.5" y="475.86" width="120" height="40" as="geometry" />
        </mxCell>
        <mxCell id="XZni-A_5DqYlkL6BBme9-67" value="" style="endArrow=none;html=1;rounded=0;fillColor=#b0e3e6;strokeColor=#0e8088;exitX=0.986;exitY=0.258;exitDx=0;exitDy=0;exitPerimeter=0;" parent="1" source="XZni-A_5DqYlkL6BBme9-63" edge="1">
          <mxGeometry width="50" height="50" relative="1" as="geometry">
            <mxPoint x="-350" y="520" as="sourcePoint" />
            <mxPoint x="-80" y="490" as="targetPoint" />
          </mxGeometry>
        </mxCell>
        <mxCell id="XZni-A_5DqYlkL6BBme9-68" value="" style="endArrow=none;html=1;rounded=0;entryX=0.595;entryY=1.05;entryDx=0;entryDy=0;fillColor=#b0e3e6;strokeColor=#0e8088;entryPerimeter=0;" parent="1" target="XZni-A_5DqYlkL6BBme9-62" edge="1">
          <mxGeometry width="50" height="50" relative="1" as="geometry">
            <mxPoint x="-30" y="350" as="sourcePoint" />
            <mxPoint x="-748.632525316942" y="307.5021356237311" as="targetPoint" />
          </mxGeometry>
        </mxCell>
        <mxCell id="XZni-A_5DqYlkL6BBme9-69" value="" style="endArrow=none;html=1;rounded=0;exitX=0;exitY=0.25;exitDx=0;exitDy=0;fillColor=#b0e3e6;strokeColor=#0e8088;entryX=1;entryY=1;entryDx=0;entryDy=0;" parent="1" source="XZni-A_5DqYlkL6BBme9-60" target="XZni-A_5DqYlkL6BBme9-64" edge="1">
          <mxGeometry width="50" height="50" relative="1" as="geometry">
            <mxPoint x="-778.13" y="438.36" as="sourcePoint" />
            <mxPoint x="-190" y="390" as="targetPoint" />
          </mxGeometry>
        </mxCell>
        <mxCell id="XZni-A_5DqYlkL6BBme9-70" value="" style="endArrow=none;html=1;rounded=0;entryX=0.08;entryY=0.994;entryDx=0;entryDy=0;fillColor=#b0e3e6;strokeColor=#0e8088;entryPerimeter=0;exitX=0.725;exitY=0.033;exitDx=0;exitDy=0;exitPerimeter=0;" parent="1" source="XZni-A_5DqYlkL6BBme9-63" target="XZni-A_5DqYlkL6BBme9-60" edge="1">
          <mxGeometry width="50" height="50" relative="1" as="geometry">
            <mxPoint x="-70" y="480" as="sourcePoint" />
            <mxPoint x="-22.86" y="426.37" as="targetPoint" />
            <Array as="points" />
          </mxGeometry>
        </mxCell>
        <mxCell id="XZni-A_5DqYlkL6BBme9-71" value="" style="endArrow=none;html=1;rounded=0;entryX=0;entryY=0.5;entryDx=0;entryDy=0;fillColor=#b0e3e6;strokeColor=#0e8088;exitX=1;exitY=0.5;exitDx=0;exitDy=0;" parent="1" source="XZni-A_5DqYlkL6BBme9-61" target="XZni-A_5DqYlkL6BBme9-60" edge="1">
          <mxGeometry width="50" height="50" relative="1" as="geometry">
            <mxPoint x="-798.13" y="438.36" as="sourcePoint" />
            <mxPoint x="-741.25" y="393.36" as="targetPoint" />
          </mxGeometry>
        </mxCell>
        <mxCell id="XZni-A_5DqYlkL6BBme9-72" value="" style="endArrow=none;html=1;rounded=0;exitX=1;exitY=0.5;exitDx=0;exitDy=0;fillColor=#b0e3e6;strokeColor=#0e8088;entryX=0;entryY=0.75;entryDx=0;entryDy=0;" parent="1" source="XZni-A_5DqYlkL6BBme9-65" target="XZni-A_5DqYlkL6BBme9-60" edge="1">
          <mxGeometry width="50" height="50" relative="1" as="geometry">
            <mxPoint x="-798.13" y="508.36" as="sourcePoint" />
            <mxPoint x="-300" y="490" as="targetPoint" />
          </mxGeometry>
        </mxCell>
        <mxCell id="XZni-A_5DqYlkL6BBme9-73" value="&lt;font style=&quot;font-size: 18px;&quot;&gt;1&lt;/font&gt;" style="resizable=0;html=1;whiteSpace=wrap;align=right;verticalAlign=bottom;" parent="1" connectable="0" vertex="1">
          <mxGeometry x="89.99995017836136" y="683.6355800235182" as="geometry" />
        </mxCell>
        <mxCell id="XZni-A_5DqYlkL6BBme9-74" value="&lt;font style=&quot;font-size: 18px;&quot;&gt;1&lt;/font&gt;" style="resizable=0;html=1;whiteSpace=wrap;align=right;verticalAlign=bottom;" parent="1" connectable="0" vertex="1">
          <mxGeometry x="110" y="440" as="geometry">
            <mxPoint x="-2" y="-6" as="offset" />
          </mxGeometry>
        </mxCell>
        <mxCell id="XZni-A_5DqYlkL6BBme9-75" value="" style="endArrow=none;dashed=1;html=1;rounded=0;" parent="1" edge="1">
          <mxGeometry width="50" height="50" relative="1" as="geometry">
            <mxPoint x="-150.30999999999995" y="353.33" as="sourcePoint" />
            <mxPoint x="-150" y="353.33" as="targetPoint" />
            <Array as="points">
              <mxPoint x="-240" y="353.33" />
              <mxPoint x="-150.30999999999995" y="353.33" />
            </Array>
          </mxGeometry>
        </mxCell>
        <mxCell id="XZni-A_5DqYlkL6BBme9-78" value="&lt;b&gt;&lt;font style=&quot;font-size: 20px;&quot;&gt;Location&lt;/font&gt;&lt;/b&gt;" style="rounded=1;whiteSpace=wrap;html=1;strokeColor=#0e8088;fillColor=#b0e3e6;labelBackgroundColor=none;strokeWidth=2;" parent="1" vertex="1">
          <mxGeometry x="-30" y="683.64" width="120" height="60" as="geometry" />
        </mxCell>
        <mxCell id="XZni-A_5DqYlkL6BBme9-79" value="&lt;u&gt;&lt;b&gt;&lt;font style=&quot;font-size: 14px;&quot;&gt;zip_code&lt;/font&gt;&lt;/b&gt;&lt;/u&gt;" style="ellipse;whiteSpace=wrap;html=1;strokeColor=#0e8088;fillColor=#FFF2CC;labelBackgroundColor=none;rounded=1;strokeWidth=2;" parent="1" vertex="1">
          <mxGeometry x="-200" y="781.78" width="190" height="40" as="geometry" />
        </mxCell>
        <mxCell id="XZni-A_5DqYlkL6BBme9-80" value="&lt;font style=&quot;font-size: 14px;&quot;&gt;&lt;b&gt;latitude&lt;/b&gt;&lt;/font&gt;" style="ellipse;whiteSpace=wrap;html=1;strokeColor=#0e8088;fillColor=#b0e3e6;labelBackgroundColor=none;rounded=1;strokeWidth=2;" parent="1" vertex="1">
          <mxGeometry x="70" y="814.5" width="120" height="40" as="geometry" />
        </mxCell>
        <mxCell id="XZni-A_5DqYlkL6BBme9-81" value="&lt;b&gt;&lt;font style=&quot;font-size: 14px;&quot;&gt;longitude&lt;/font&gt;&lt;/b&gt;" style="ellipse;whiteSpace=wrap;html=1;strokeColor=#0e8088;fillColor=#b0e3e6;labelBackgroundColor=none;rounded=1;strokeWidth=2;" parent="1" vertex="1">
          <mxGeometry x="-240" y="730" width="100" height="40" as="geometry" />
        </mxCell>
        <mxCell id="XZni-A_5DqYlkL6BBme9-85" value="" style="endArrow=none;html=1;rounded=0;entryX=0;entryY=0.75;entryDx=0;entryDy=0;exitX=1;exitY=0.5;exitDx=0;exitDy=0;fillColor=#b0e3e6;strokeColor=#0e8088;" parent="1" source="XZni-A_5DqYlkL6BBme9-81" target="XZni-A_5DqYlkL6BBme9-78" edge="1">
          <mxGeometry width="50" height="50" relative="1" as="geometry">
            <mxPoint x="-118.75" y="801.78" as="sourcePoint" />
            <mxPoint x="-68.75" y="751.78" as="targetPoint" />
          </mxGeometry>
        </mxCell>
        <mxCell id="XZni-A_5DqYlkL6BBme9-87" value="" style="endArrow=none;html=1;rounded=0;entryX=0.75;entryY=1;entryDx=0;entryDy=0;exitX=0.372;exitY=-0.062;exitDx=0;exitDy=0;fillColor=#b0e3e6;strokeColor=#0e8088;exitPerimeter=0;" parent="1" source="XZni-A_5DqYlkL6BBme9-80" target="XZni-A_5DqYlkL6BBme9-78" edge="1">
          <mxGeometry width="50" height="50" relative="1" as="geometry">
            <mxPoint x="-22.25" y="931.78" as="sourcePoint" />
            <mxPoint x="27.75" y="881.78" as="targetPoint" />
          </mxGeometry>
        </mxCell>
        <mxCell id="XZni-A_5DqYlkL6BBme9-88" value="" style="endArrow=none;html=1;rounded=0;entryX=0;entryY=1;entryDx=0;entryDy=0;exitX=0.686;exitY=0.078;exitDx=0;exitDy=0;exitPerimeter=0;fillColor=#b0e3e6;strokeColor=#0e8088;" parent="1" source="XZni-A_5DqYlkL6BBme9-79" target="XZni-A_5DqYlkL6BBme9-78" edge="1">
          <mxGeometry width="50" height="50" relative="1" as="geometry">
            <mxPoint x="-90" y="931.78" as="sourcePoint" />
            <mxPoint x="-40" y="881.78" as="targetPoint" />
          </mxGeometry>
        </mxCell>
        <mxCell id="XZni-A_5DqYlkL6BBme9-89" style="edgeStyle=orthogonalEdgeStyle;rounded=0;orthogonalLoop=1;jettySize=auto;html=1;exitX=0.5;exitY=1;exitDx=0;exitDy=0;fillColor=#b0e3e6;strokeColor=#0e8088;" parent="1" source="XZni-A_5DqYlkL6BBme9-79" target="XZni-A_5DqYlkL6BBme9-79" edge="1">
          <mxGeometry relative="1" as="geometry" />
        </mxCell>
        <mxCell id="XZni-A_5DqYlkL6BBme9-91" value="&lt;b&gt;&lt;font style=&quot;font-size: 20px;&quot;&gt;Reviews&amp;nbsp;&lt;/font&gt;&lt;/b&gt;" style="rounded=1;whiteSpace=wrap;html=1;strokeColor=#0e8088;fillColor=#b0e3e6;labelBackgroundColor=none;strokeWidth=2;" parent="1" vertex="1">
          <mxGeometry x="483.12999999999977" y="760.38" width="120" height="60" as="geometry" />
        </mxCell>
        <mxCell id="XZni-A_5DqYlkL6BBme9-92" value="&lt;u&gt;&lt;b&gt;&lt;font style=&quot;font-size: 14px;&quot;&gt;review_id&lt;/font&gt;&lt;/b&gt;&lt;/u&gt;" style="ellipse;whiteSpace=wrap;html=1;strokeColor=#0e8088;fillColor=#FFF2CC;labelBackgroundColor=none;rounded=1;strokeWidth=2;" parent="1" vertex="1">
          <mxGeometry x="319.9999999999998" y="781.78" width="100" height="50" as="geometry" />
        </mxCell>
        <mxCell id="XZni-A_5DqYlkL6BBme9-94" value="&lt;b&gt;&lt;font style=&quot;font-size: 14px;&quot;&gt;score&lt;/font&gt;&lt;/b&gt;" style="ellipse;whiteSpace=wrap;html=1;strokeColor=#0e8088;fillColor=#b0e3e6;labelBackgroundColor=none;rounded=1;strokeWidth=2;" parent="1" vertex="1">
          <mxGeometry x="350.7399999999998" y="673.64" width="100" height="60" as="geometry" />
        </mxCell>
        <mxCell id="XZni-A_5DqYlkL6BBme9-97" value="" style="endArrow=none;html=1;rounded=0;fillColor=#b0e3e6;strokeColor=#0e8088;entryX=1;entryY=0.5;entryDx=0;entryDy=0;" parent="1" target="XZni-A_5DqYlkL6BBme9-92" edge="1">
          <mxGeometry width="50" height="50" relative="1" as="geometry">
            <mxPoint x="480" y="790" as="sourcePoint" />
            <mxPoint x="836.09" y="1479.52" as="targetPoint" />
            <Array as="points" />
          </mxGeometry>
        </mxCell>
        <mxCell id="XZni-A_5DqYlkL6BBme9-98" value="" style="endArrow=none;html=1;rounded=0;fillColor=#b0e3e6;strokeColor=#0e8088;entryX=0.5;entryY=0;entryDx=0;entryDy=0;" parent="1" target="XZni-A_5DqYlkL6BBme9-93" edge="1">
          <mxGeometry width="50" height="50" relative="1" as="geometry">
            <mxPoint x="505" y="820" as="sourcePoint" />
            <mxPoint x="409.38" y="822.5" as="targetPoint" />
            <Array as="points">
              <mxPoint x="505" y="830" />
            </Array>
          </mxGeometry>
        </mxCell>
        <mxCell id="XZni-A_5DqYlkL6BBme9-99" value="" style="endArrow=none;html=1;rounded=0;fillColor=#b0e3e6;strokeColor=#0e8088;entryX=0.5;entryY=1;entryDx=0;entryDy=0;exitX=0.5;exitY=1;exitDx=0;exitDy=0;" parent="1" source="XZni-A_5DqYlkL6BBme9-109" target="XZni-A_5DqYlkL6BBme9-91" edge="1">
          <mxGeometry width="50" height="50" relative="1" as="geometry">
            <mxPoint x="599.38" y="750.38" as="sourcePoint" />
            <mxPoint x="536.09" y="1536.52" as="targetPoint" />
          </mxGeometry>
        </mxCell>
        <mxCell id="XZni-A_5DqYlkL6BBme9-100" value="" style="endArrow=none;html=1;rounded=0;fillColor=#b0e3e6;strokeColor=#0e8088;entryX=1;entryY=0.25;entryDx=0;entryDy=0;" parent="1" target="XZni-A_5DqYlkL6BBme9-91" edge="1">
          <mxGeometry width="50" height="50" relative="1" as="geometry">
            <mxPoint x="689.38" y="775.38" as="sourcePoint" />
            <mxPoint x="553.13" y="817.88" as="targetPoint" />
            <Array as="points" />
          </mxGeometry>
        </mxCell>
        <mxCell id="XZni-A_5DqYlkL6BBme9-103" value="" style="endArrow=none;dashed=1;html=1;rounded=0;" parent="1" edge="1">
          <mxGeometry width="50" height="50" relative="1" as="geometry">
            <mxPoint x="483.13" y="890" as="sourcePoint" />
            <mxPoint x="543.13" y="890" as="targetPoint" />
            <Array as="points" />
          </mxGeometry>
        </mxCell>
        <mxCell id="XZni-A_5DqYlkL6BBme9-110" value="&lt;b&gt;&lt;font style=&quot;font-size: 14px;&quot;&gt;answer_date&lt;/font&gt;&lt;/b&gt;" style="ellipse;whiteSpace=wrap;html=1;strokeColor=#0e8088;fillColor=#b0e3e6;labelBackgroundColor=none;rounded=1;strokeWidth=2;" parent="1" vertex="1">
          <mxGeometry x="656.88" y="745.38" width="100" height="60" as="geometry" />
        </mxCell>
        <mxCell id="XZni-A_5DqYlkL6BBme9-109" value="&lt;b&gt;&lt;font style=&quot;font-size: 14px;&quot;&gt;creation_date&lt;/font&gt;&lt;/b&gt;" style="ellipse;whiteSpace=wrap;html=1;strokeColor=#0e8088;fillColor=#b0e3e6;labelBackgroundColor=none;rounded=1;strokeWidth=2;" parent="1" vertex="1">
          <mxGeometry x="600.74" y="854.5" width="100" height="50" as="geometry" />
        </mxCell>
        <mxCell id="XZni-A_5DqYlkL6BBme9-93" value="&lt;b&gt;&lt;font style=&quot;font-size: 14px;&quot;&gt;order_id&lt;/font&gt;&lt;/b&gt;" style="ellipse;whiteSpace=wrap;html=1;strokeColor=#0e8088;fillColor=#b0e3e6;labelBackgroundColor=none;rounded=1;strokeWidth=2;" parent="1" vertex="1">
          <mxGeometry x="460" y="857.5" width="90" height="40" as="geometry" />
        </mxCell>
        <mxCell id="XZni-A_5DqYlkL6BBme9-119" value="&lt;b&gt;&lt;font style=&quot;font-size: 20px;&quot;&gt;Products&lt;/font&gt;&lt;/b&gt;" style="rounded=1;whiteSpace=wrap;html=1;strokeColor=#0e8088;fillColor=#b0e3e6;labelBackgroundColor=none;strokeWidth=2;" parent="1" vertex="1">
          <mxGeometry x="1079.9999999999998" y="121.31" width="120" height="60" as="geometry" />
        </mxCell>
        <mxCell id="XZni-A_5DqYlkL6BBme9-120" value="&lt;u&gt;&lt;b&gt;&lt;font style=&quot;font-size: 14px;&quot;&gt;product_id&lt;/font&gt;&lt;/b&gt;&lt;/u&gt;" style="ellipse;whiteSpace=wrap;html=1;strokeColor=#0e8088;fillColor=#FFF2CC;labelBackgroundColor=none;rounded=1;strokeWidth=2;" parent="1" vertex="1">
          <mxGeometry x="1152.6599999999999" y="40" width="80" height="30" as="geometry" />
        </mxCell>
        <mxCell id="XZni-A_5DqYlkL6BBme9-121" value="&lt;b&gt;&lt;font style=&quot;font-size: 14px;&quot;&gt;category_name&lt;/font&gt;&lt;/b&gt;" style="ellipse;whiteSpace=wrap;html=1;strokeColor=#0e8088;fillColor=#b0e3e6;labelBackgroundColor=none;rounded=1;strokeWidth=2;" parent="1" vertex="1">
          <mxGeometry x="1251.3999999999996" y="145" width="200" height="40" as="geometry" />
        </mxCell>
        <mxCell id="XZni-A_5DqYlkL6BBme9-124" value="&lt;b&gt;&lt;font style=&quot;font-size: 14px;&quot;&gt;photos_qty&lt;/font&gt;&lt;/b&gt;" style="ellipse;whiteSpace=wrap;html=1;strokeColor=#0e8088;fillColor=#b0e3e6;labelBackgroundColor=none;rounded=1;strokeWidth=2;" parent="1" vertex="1">
          <mxGeometry x="1256.9199999999998" y="80" width="120" height="40" as="geometry" />
        </mxCell>
        <mxCell id="XZni-A_5DqYlkL6BBme9-131" value="" style="endArrow=none;html=1;rounded=0;entryX=0;entryY=0.5;entryDx=0;entryDy=0;exitX=1;exitY=0.75;exitDx=0;exitDy=0;fillColor=#b0e3e6;strokeColor=#0e8088;" parent="1" source="XZni-A_5DqYlkL6BBme9-119" target="XZni-A_5DqYlkL6BBme9-121" edge="1">
          <mxGeometry width="50" height="50" relative="1" as="geometry">
            <mxPoint x="1085.1599999999999" y="350" as="sourcePoint" />
            <mxPoint x="1135.1599999999999" y="300" as="targetPoint" />
          </mxGeometry>
        </mxCell>
        <mxCell id="XZni-A_5DqYlkL6BBme9-133" value="" style="endArrow=none;html=1;rounded=0;entryX=0.404;entryY=1;entryDx=0;entryDy=0;exitX=0.86;exitY=-0.031;exitDx=0;exitDy=0;exitPerimeter=0;fillColor=#b0e3e6;strokeColor=#0e8088;entryPerimeter=0;" parent="1" source="XZni-A_5DqYlkL6BBme9-119" target="XZni-A_5DqYlkL6BBme9-120" edge="1">
          <mxGeometry width="50" height="50" relative="1" as="geometry">
            <mxPoint x="930.1599999999999" y="75" as="sourcePoint" />
            <mxPoint x="980.1599999999997" y="25.000000000000007" as="targetPoint" />
          </mxGeometry>
        </mxCell>
        <mxCell id="XZni-A_5DqYlkL6BBme9-136" value="" style="endArrow=none;html=1;rounded=0;entryX=0;entryY=0.5;entryDx=0;entryDy=0;exitX=1;exitY=0.25;exitDx=0;exitDy=0;fillColor=#b0e3e6;strokeColor=#0e8088;" parent="1" source="XZni-A_5DqYlkL6BBme9-119" target="XZni-A_5DqYlkL6BBme9-124" edge="1">
          <mxGeometry width="50" height="50" relative="1" as="geometry">
            <mxPoint x="960.1599999999997" y="105" as="sourcePoint" />
            <mxPoint x="1010.1599999999997" y="55.00000000000001" as="targetPoint" />
          </mxGeometry>
        </mxCell>
        <mxCell id="XZni-A_5DqYlkL6BBme9-139" value="&lt;div&gt;&lt;b&gt;&lt;font style=&quot;font-size: 14px;&quot;&gt;Sell&lt;/font&gt;&lt;/b&gt;&lt;/div&gt;" style="rhombus;whiteSpace=wrap;html=1;fillColor=#FFFF99;" parent="1" vertex="1">
          <mxGeometry x="403.13" y="170" width="80" height="80" as="geometry" />
        </mxCell>
        <mxCell id="XZni-A_5DqYlkL6BBme9-140" value="" style="endArrow=none;html=1;rounded=0;entryX=0;entryY=0.5;entryDx=0;entryDy=0;shape=link;" parent="1" target="XZni-A_5DqYlkL6BBme9-139" edge="1">
          <mxGeometry width="50" height="50" relative="1" as="geometry">
            <mxPoint x="254" y="215" as="sourcePoint" />
            <mxPoint x="366" y="225" as="targetPoint" />
          </mxGeometry>
        </mxCell>
        <mxCell id="XZni-A_5DqYlkL6BBme9-141" value="" style="endArrow=none;html=1;rounded=0;exitX=1;exitY=0.5;exitDx=0;exitDy=0;entryX=0;entryY=0.75;entryDx=0;entryDy=0;shape=link;" parent="1" source="XZni-A_5DqYlkL6BBme9-139" target="XZni-A_5DqYlkL6BBme9-1" edge="1">
          <mxGeometry width="50" height="50" relative="1" as="geometry">
            <mxPoint x="436" y="250" as="sourcePoint" />
            <mxPoint x="611" y="250" as="targetPoint" />
          </mxGeometry>
        </mxCell>
        <mxCell id="XZni-A_5DqYlkL6BBme9-143" value="&lt;font style=&quot;font-size: 18px;&quot;&gt;M&lt;/font&gt;" style="text;html=1;align=center;verticalAlign=middle;resizable=0;points=[];autosize=1;strokeColor=none;fillColor=none;" parent="1" vertex="1">
          <mxGeometry x="563.13" y="180" width="40" height="40" as="geometry" />
        </mxCell>
        <mxCell id="XZni-A_5DqYlkL6BBme9-144" value="&lt;b&gt;Exist in&lt;/b&gt;" style="rhombus;whiteSpace=wrap;html=1;fillColor=#FFFF99;" parent="1" vertex="1">
          <mxGeometry x="130" y="448.36" width="80" height="80" as="geometry" />
        </mxCell>
        <mxCell id="XZni-A_5DqYlkL6BBme9-145" value="" style="endArrow=none;html=1;rounded=0;entryX=0.5;entryY=1;entryDx=0;entryDy=0;shape=link;" parent="1" target="XZni-A_5DqYlkL6BBme9-144" edge="1">
          <mxGeometry width="50" height="50" relative="1" as="geometry">
            <mxPoint x="160" y="640" as="sourcePoint" />
            <mxPoint x="140.00000000000023" y="415" as="targetPoint" />
          </mxGeometry>
        </mxCell>
        <mxCell id="XZni-A_5DqYlkL6BBme9-146" value="" style="endArrow=none;html=1;rounded=0;entryX=0.347;entryY=0.978;entryDx=0;entryDy=0;shape=link;exitX=0.5;exitY=0;exitDx=0;exitDy=0;entryPerimeter=0;" parent="1" source="XZni-A_5DqYlkL6BBme9-144" target="ceAIdKaY7GNkZQIhl2np-13" edge="1">
          <mxGeometry width="50" height="50" relative="1" as="geometry">
            <mxPoint x="160" y="390" as="sourcePoint" />
            <mxPoint x="435" y="195" as="targetPoint" />
          </mxGeometry>
        </mxCell>
        <mxCell id="XZni-A_5DqYlkL6BBme9-147" value="&lt;font style=&quot;font-size: 18px;&quot;&gt;1&lt;/font&gt;" style="text;html=1;align=center;verticalAlign=middle;resizable=0;points=[];autosize=1;strokeColor=none;fillColor=none;" parent="1" vertex="1">
          <mxGeometry x="1139.9999999999998" y="651.78" width="30" height="40" as="geometry" />
        </mxCell>
        <mxCell id="XZni-A_5DqYlkL6BBme9-148" value="&lt;font size=&quot;3&quot;&gt;M&lt;/font&gt;" style="resizable=0;html=1;whiteSpace=wrap;align=right;verticalAlign=bottom;" parent="1" connectable="0" vertex="1">
          <mxGeometry x="120" y="671.78" as="geometry">
            <mxPoint x="74" y="-401" as="offset" />
          </mxGeometry>
        </mxCell>
        <mxCell id="XZni-A_5DqYlkL6BBme9-149" value="&lt;b&gt;have&lt;/b&gt;" style="rhombus;whiteSpace=wrap;html=1;fillColor=#FFFF99;" parent="1" vertex="1">
          <mxGeometry x="-30" y="513.3599999999999" width="80" height="80" as="geometry" />
        </mxCell>
        <mxCell id="XZni-A_5DqYlkL6BBme9-150" value="" style="shape=link;html=1;rounded=0;exitX=0.5;exitY=0;exitDx=0;exitDy=0;" parent="1" source="XZni-A_5DqYlkL6BBme9-149" edge="1">
          <mxGeometry relative="1" as="geometry">
            <mxPoint x="-13.75" y="538.64" as="sourcePoint" />
            <mxPoint x="10" y="420" as="targetPoint" />
          </mxGeometry>
        </mxCell>
        <mxCell id="XZni-A_5DqYlkL6BBme9-151" value="&lt;font style=&quot;font-size: 18px;&quot;&gt;1&lt;/font&gt;" style="resizable=0;html=1;whiteSpace=wrap;align=right;verticalAlign=bottom;" parent="XZni-A_5DqYlkL6BBme9-150" connectable="0" vertex="1">
          <mxGeometry x="1" relative="1" as="geometry">
            <mxPoint x="-20" y="254" as="offset" />
          </mxGeometry>
        </mxCell>
        <mxCell id="XZni-A_5DqYlkL6BBme9-152" value="" style="shape=link;html=1;rounded=0;exitX=0.5;exitY=1;exitDx=0;exitDy=0;" parent="1" source="XZni-A_5DqYlkL6BBme9-149" edge="1">
          <mxGeometry relative="1" as="geometry">
            <mxPoint x="21.248351648351786" y="660.2883516483517" as="sourcePoint" />
            <mxPoint x="10" y="680" as="targetPoint" />
          </mxGeometry>
        </mxCell>
        <mxCell id="XZni-A_5DqYlkL6BBme9-153" value="&lt;font style=&quot;font-size: 18px;&quot;&gt;M&lt;/font&gt;" style="edgeLabel;html=1;align=center;verticalAlign=middle;resizable=0;points=[];" parent="XZni-A_5DqYlkL6BBme9-152" connectable="0" vertex="1">
          <mxGeometry x="0.7167" y="-10" relative="1" as="geometry">
            <mxPoint x="30" y="-228" as="offset" />
          </mxGeometry>
        </mxCell>
        <mxCell id="XZni-A_5DqYlkL6BBme9-154" value="" style="endArrow=none;html=1;rounded=0;fillColor=#b0e3e6;strokeColor=#0e8088;exitX=0.986;exitY=0.258;exitDx=0;exitDy=0;exitPerimeter=0;" parent="1" source="XZni-A_5DqYlkL6BBme9-66" edge="1">
          <mxGeometry width="50" height="50" relative="1" as="geometry">
            <mxPoint x="-242" y="520" as="sourcePoint" />
            <mxPoint x="-30" y="410" as="targetPoint" />
          </mxGeometry>
        </mxCell>
        <mxCell id="XZni-A_5DqYlkL6BBme9-63" value="&lt;font style=&quot;font-size: 14px;&quot;&gt;&lt;b&gt;name&lt;/b&gt;&lt;/font&gt;" style="ellipse;whiteSpace=wrap;html=1;strokeColor=#0e8088;fillColor=#b0e3e6;labelBackgroundColor=none;rounded=1;strokeWidth=2;" parent="1" vertex="1">
          <mxGeometry x="-142.5" y="488.36000000000007" width="100" height="50" as="geometry" />
        </mxCell>
        <mxCell id="XZni-A_5DqYlkL6BBme9-158" value="&lt;font style=&quot;font-size: 18px;&quot;&gt;M&lt;/font&gt;" style="text;html=1;align=center;verticalAlign=middle;resizable=0;points=[];autosize=1;strokeColor=none;fillColor=none;" parent="1" vertex="1">
          <mxGeometry x="470.00000000000006" y="716.78" width="40" height="40" as="geometry" />
        </mxCell>
        <mxCell id="XZni-A_5DqYlkL6BBme9-159" value="&lt;b&gt;&lt;font style=&quot;font-size: 14px;&quot;&gt;have&lt;/font&gt;&lt;/b&gt;" style="rhombus;whiteSpace=wrap;html=1;fillColor=#FFFF99;" parent="1" vertex="1">
          <mxGeometry x="810" y="591.78" width="80" height="80" as="geometry" />
        </mxCell>
        <mxCell id="XZni-A_5DqYlkL6BBme9-160" value="" style="endArrow=none;html=1;rounded=0;exitX=1;exitY=0.5;exitDx=0;exitDy=0;entryX=0;entryY=0.25;entryDx=0;entryDy=0;" parent="1" source="XZni-A_5DqYlkL6BBme9-159" edge="1" target="XZni-A_5DqYlkL6BBme9-22">
          <mxGeometry width="50" height="50" relative="1" as="geometry">
            <mxPoint x="790" y="360" as="sourcePoint" />
            <mxPoint x="1210" y="650" as="targetPoint" />
          </mxGeometry>
        </mxCell>
        <mxCell id="XZni-A_5DqYlkL6BBme9-161" value="" style="endArrow=none;html=1;rounded=0;exitX=0.116;exitY=0.733;exitDx=0;exitDy=0;entryX=1;entryY=0;entryDx=0;entryDy=0;shape=link;exitPerimeter=0;" parent="1" source="XZni-A_5DqYlkL6BBme9-159" target="XZni-A_5DqYlkL6BBme9-91" edge="1">
          <mxGeometry width="50" height="50" relative="1" as="geometry">
            <mxPoint x="1330" y="315" as="sourcePoint" />
            <mxPoint x="1323" y="203" as="targetPoint" />
            <Array as="points" />
          </mxGeometry>
        </mxCell>
        <mxCell id="XZni-A_5DqYlkL6BBme9-162" value="&lt;font style=&quot;font-size: 18px;&quot;&gt;1&lt;/font&gt;" style="text;html=1;align=center;verticalAlign=middle;resizable=0;points=[];autosize=1;strokeColor=none;fillColor=none;" parent="1" vertex="1">
          <mxGeometry x="586" y="717.5" width="30" height="40" as="geometry" />
        </mxCell>
        <mxCell id="XZni-A_5DqYlkL6BBme9-163" value="&lt;b&gt;&lt;font style=&quot;font-size: 14px;&quot;&gt;have&lt;/font&gt;&lt;/b&gt;" style="rhombus;whiteSpace=wrap;html=1;fillColor=#FFFF99;" parent="1" vertex="1">
          <mxGeometry x="1311.3999999999999" y="480" width="80" height="80" as="geometry" />
        </mxCell>
        <mxCell id="XZni-A_5DqYlkL6BBme9-164" value="" style="endArrow=none;html=1;rounded=0;entryX=0.5;entryY=0;entryDx=0;entryDy=0;shape=link;" parent="1" target="XZni-A_5DqYlkL6BBme9-163" edge="1">
          <mxGeometry width="50" height="50" relative="1" as="geometry">
            <mxPoint x="1351" y="420" as="sourcePoint" />
            <mxPoint x="1270" y="620" as="targetPoint" />
          </mxGeometry>
        </mxCell>
        <mxCell id="XZni-A_5DqYlkL6BBme9-165" value="" style="endArrow=none;html=1;rounded=0;exitX=0.5;exitY=1;exitDx=0;exitDy=0;entryX=1;entryY=0;entryDx=0;entryDy=0;shape=link;" parent="1" edge="1">
          <mxGeometry width="50" height="50" relative="1" as="geometry">
            <mxPoint x="1348.2799999999997" y="556.78" as="sourcePoint" />
            <mxPoint x="1328.8000000000002" y="646.78" as="targetPoint" />
          </mxGeometry>
        </mxCell>
        <mxCell id="XZni-A_5DqYlkL6BBme9-167" value="&lt;font style=&quot;font-size: 18px;&quot;&gt;1&lt;/font&gt;" style="text;html=1;align=center;verticalAlign=middle;resizable=0;points=[];autosize=1;strokeColor=none;fillColor=none;" parent="1" vertex="1">
          <mxGeometry x="1331.9199999999998" y="610" width="30" height="40" as="geometry" />
        </mxCell>
        <mxCell id="XZni-A_5DqYlkL6BBme9-168" value="&lt;b&gt;&lt;font style=&quot;font-size: 14px;&quot;&gt;Are&lt;/font&gt;&lt;/b&gt;" style="rhombus;whiteSpace=wrap;html=1;fillColor=#FFFF99;" parent="1" vertex="1">
          <mxGeometry x="927.5" y="220" width="80" height="80" as="geometry" />
        </mxCell>
        <mxCell id="XZni-A_5DqYlkL6BBme9-169" value="" style="endArrow=none;html=1;rounded=0;exitX=0.25;exitY=-0.15;exitDx=0;exitDy=0;entryX=0;entryY=0.5;entryDx=0;entryDy=0;shape=link;exitPerimeter=0;" parent="1" source="XZni-A_5DqYlkL6BBme9-177" target="XZni-A_5DqYlkL6BBme9-168" edge="1">
          <mxGeometry width="50" height="50" relative="1" as="geometry">
            <mxPoint x="725" y="264.05" as="sourcePoint" />
            <mxPoint x="782.75" y="267.05" as="targetPoint" />
          </mxGeometry>
        </mxCell>
        <mxCell id="XZni-A_5DqYlkL6BBme9-170" value="" style="endArrow=none;html=1;rounded=0;exitX=1;exitY=0.5;exitDx=0;exitDy=0;entryX=0;entryY=1;entryDx=0;entryDy=0;" parent="1" source="XZni-A_5DqYlkL6BBme9-168" target="XZni-A_5DqYlkL6BBme9-119" edge="1">
          <mxGeometry width="50" height="50" relative="1" as="geometry">
            <mxPoint x="915" y="472.05" as="sourcePoint" />
            <mxPoint x="1875.46" y="578.3599999999999" as="targetPoint" />
            <Array as="points" />
          </mxGeometry>
        </mxCell>
        <mxCell id="XZni-A_5DqYlkL6BBme9-171" value="" style="endArrow=none;html=1;rounded=0;shape=link;" parent="1" edge="1">
          <mxGeometry width="50" height="50" relative="1" as="geometry">
            <mxPoint x="90" y="690" as="sourcePoint" />
            <mxPoint x="160" y="640" as="targetPoint" />
            <Array as="points" />
          </mxGeometry>
        </mxCell>
        <mxCell id="XZni-A_5DqYlkL6BBme9-172" value="&lt;div&gt;&lt;b&gt;&lt;font style=&quot;font-size: 14px;&quot;&gt;have&lt;/font&gt;&lt;/b&gt;&lt;/div&gt;" style="rhombus;whiteSpace=wrap;html=1;fillColor=#FFFF99;" parent="1" vertex="1">
          <mxGeometry x="972.66" y="370" width="80" height="80" as="geometry" />
        </mxCell>
        <mxCell id="XZni-A_5DqYlkL6BBme9-173" value="" style="endArrow=none;html=1;rounded=0;entryX=0.983;entryY=0.66;entryDx=0;entryDy=0;shape=link;entryPerimeter=0;" parent="1" target="XZni-A_5DqYlkL6BBme9-172" edge="1">
          <mxGeometry width="50" height="50" relative="1" as="geometry">
            <mxPoint x="1300" y="640" as="sourcePoint" />
            <mxPoint x="534.26" y="577.5" as="targetPoint" />
          </mxGeometry>
        </mxCell>
        <mxCell id="XZni-A_5DqYlkL6BBme9-174" value="" style="endArrow=none;html=1;rounded=0;entryX=0.5;entryY=1;entryDx=0;entryDy=0;exitX=0.304;exitY=0.088;exitDx=0;exitDy=0;shape=link;exitPerimeter=0;" parent="1" source="XZni-A_5DqYlkL6BBme9-172" target="XZni-A_5DqYlkL6BBme9-1" edge="1">
          <mxGeometry width="50" height="50" relative="1" as="geometry">
            <mxPoint x="677" y="472.5" as="sourcePoint" />
            <mxPoint x="718.3899999999996" y="241.98000000000002" as="targetPoint" />
          </mxGeometry>
        </mxCell>
        <mxCell id="XZni-A_5DqYlkL6BBme9-175" value="&lt;font style=&quot;font-size: 18px;&quot;&gt;1&lt;/font&gt;" style="text;html=1;align=center;verticalAlign=middle;resizable=0;points=[];autosize=1;strokeColor=none;fillColor=none;" parent="1" vertex="1">
          <mxGeometry x="1281.3999999999999" y="590" width="30" height="40" as="geometry" />
        </mxCell>
        <mxCell id="XZni-A_5DqYlkL6BBme9-176" value="&lt;font style=&quot;font-size: 18px;&quot;&gt;M&lt;/font&gt;" style="text;html=1;align=center;verticalAlign=middle;resizable=0;points=[];autosize=1;strokeColor=none;fillColor=none;" parent="1" vertex="1">
          <mxGeometry x="646" y="240" width="40" height="40" as="geometry" />
        </mxCell>
        <mxCell id="XZni-A_5DqYlkL6BBme9-177" value="&lt;font style=&quot;font-size: 18px;&quot;&gt;M&lt;/font&gt;" style="text;html=1;align=center;verticalAlign=middle;resizable=0;points=[];autosize=1;strokeColor=none;fillColor=none;" parent="1" vertex="1">
          <mxGeometry x="735.74" y="230" width="40" height="40" as="geometry" />
        </mxCell>
        <mxCell id="XZni-A_5DqYlkL6BBme9-178" value="&lt;font style=&quot;font-size: 18px;&quot;&gt;1&lt;/font&gt;" style="text;html=1;align=center;verticalAlign=middle;resizable=0;points=[];autosize=1;strokeColor=none;fillColor=none;" parent="1" vertex="1">
          <mxGeometry x="1045" y="147.5" width="30" height="40" as="geometry" />
        </mxCell>
        <mxCell id="XZni-A_5DqYlkL6BBme9-180" value="" style="endArrow=none;html=1;rounded=0;fillColor=#b0e3e6;strokeColor=#0e8088;exitX=0;exitY=0;exitDx=0;exitDy=0;entryX=0.653;entryY=0.971;entryDx=0;entryDy=0;entryPerimeter=0;" parent="1" source="XZni-A_5DqYlkL6BBme9-91" target="XZni-A_5DqYlkL6BBme9-94" edge="1">
          <mxGeometry width="50" height="50" relative="1" as="geometry">
            <mxPoint x="514" y="736.64" as="sourcePoint" />
            <mxPoint x="440" y="744" as="targetPoint" />
            <Array as="points" />
          </mxGeometry>
        </mxCell>
        <mxCell id="XZni-A_5DqYlkL6BBme9-182" value="&lt;font style=&quot;font-size: 14px;&quot;&gt;&lt;b&gt;Order&lt;/b&gt;&lt;/font&gt;" style="rhombus;whiteSpace=wrap;html=1;fillColor=#FFFF99;" parent="1" vertex="1">
          <mxGeometry x="668.49" y="320" width="80" height="80" as="geometry" />
        </mxCell>
        <mxCell id="XZni-A_5DqYlkL6BBme9-183" value="" style="shape=link;html=1;rounded=0;" parent="1" source="XZni-A_5DqYlkL6BBme9-182" edge="1">
          <mxGeometry relative="1" as="geometry">
            <mxPoint x="386.46000000000004" y="420.82" as="sourcePoint" />
            <mxPoint x="100" y="360" as="targetPoint" />
          </mxGeometry>
        </mxCell>
        <mxCell id="XZni-A_5DqYlkL6BBme9-185" value="" style="shape=link;html=1;rounded=0;entryX=0.5;entryY=0;entryDx=0;entryDy=0;" parent="1" target="XZni-A_5DqYlkL6BBme9-22" edge="1">
          <mxGeometry relative="1" as="geometry">
            <mxPoint x="750" y="370" as="sourcePoint" />
            <mxPoint x="2238.38" y="500.82" as="targetPoint" />
          </mxGeometry>
        </mxCell>
        <mxCell id="XZni-A_5DqYlkL6BBme9-186" value="&lt;font style=&quot;font-size: 18px;&quot;&gt;M&lt;/font&gt;" style="resizable=0;html=1;whiteSpace=wrap;align=right;verticalAlign=bottom;" parent="XZni-A_5DqYlkL6BBme9-185" connectable="0" vertex="1">
          <mxGeometry x="1" relative="1" as="geometry">
            <mxPoint x="-39" y="-30" as="offset" />
          </mxGeometry>
        </mxCell>
        <mxCell id="XZni-A_5DqYlkL6BBme9-188" style="edgeStyle=orthogonalEdgeStyle;rounded=0;orthogonalLoop=1;jettySize=auto;html=1;exitX=0.5;exitY=1;exitDx=0;exitDy=0;" parent="1" source="XZni-A_5DqYlkL6BBme9-65" target="XZni-A_5DqYlkL6BBme9-65" edge="1">
          <mxGeometry relative="1" as="geometry" />
        </mxCell>
        <mxCell id="XZni-A_5DqYlkL6BBme9-190" value="&lt;b&gt;&lt;font style=&quot;font-size: 14px;&quot;&gt;order_id&lt;/font&gt;&lt;/b&gt;" style="ellipse;whiteSpace=wrap;html=1;strokeColor=#0e8088;fillColor=#FFF2CC;labelBackgroundColor=none;rounded=1;strokeWidth=2;" parent="1" vertex="1">
          <mxGeometry x="1074.9999999999998" y="735" width="100" height="30" as="geometry" />
        </mxCell>
        <mxCell id="XZni-A_5DqYlkL6BBme9-191" value="" style="endArrow=none;html=1;rounded=0;exitX=0.68;exitY=0.071;exitDx=0;exitDy=0;fillColor=#b0e3e6;strokeColor=#0e8088;exitPerimeter=0;" parent="1" source="XZni-A_5DqYlkL6BBme9-190" edge="1">
          <mxGeometry width="50" height="50" relative="1" as="geometry">
            <mxPoint x="1083" y="690" as="sourcePoint" />
            <mxPoint x="1210" y="680" as="targetPoint" />
          </mxGeometry>
        </mxCell>
        <mxCell id="IRpaL8jZD0x_B0cJCYoF-2" value="&lt;font style=&quot;font-size: 14px;&quot;&gt;&lt;b&gt;seller_id&lt;/b&gt;&lt;/font&gt;" style="ellipse;whiteSpace=wrap;html=1;strokeColor=#0e8088;fillColor=#b0e3e6;labelBackgroundColor=none;rounded=1;strokeWidth=2;" parent="1" vertex="1">
          <mxGeometry x="800" y="65" width="90" height="45" as="geometry" />
        </mxCell>
        <mxCell id="IRpaL8jZD0x_B0cJCYoF-3" value="" style="endArrow=none;html=1;rounded=0;fillColor=#b0e3e6;strokeColor=#0e8088;entryX=0.315;entryY=1.054;entryDx=0;entryDy=0;entryPerimeter=0;exitX=0.846;exitY=0;exitDx=0;exitDy=0;exitPerimeter=0;" parent="1" source="XZni-A_5DqYlkL6BBme9-1" target="IRpaL8jZD0x_B0cJCYoF-2" edge="1">
          <mxGeometry width="50" height="50" relative="1" as="geometry">
            <mxPoint x="808" y="180" as="sourcePoint" />
            <mxPoint x="840" y="140" as="targetPoint" />
          </mxGeometry>
        </mxCell>
        <mxCell id="IRpaL8jZD0x_B0cJCYoF-4" value="" style="endArrow=none;dashed=1;html=1;rounded=0;" parent="1" edge="1">
          <mxGeometry width="50" height="50" relative="1" as="geometry">
            <mxPoint x="871.56" y="94.99999999999999" as="sourcePoint" />
            <mxPoint x="818.4300000000001" y="95.53000000000002" as="targetPoint" />
            <Array as="points">
              <mxPoint x="871.56" y="94.99999999999999" />
            </Array>
          </mxGeometry>
        </mxCell>
        <mxCell id="IRpaL8jZD0x_B0cJCYoF-6" value="" style="endArrow=none;dashed=1;html=1;rounded=0;" parent="1" edge="1">
          <mxGeometry width="50" height="50" relative="1" as="geometry">
            <mxPoint x="560" y="890.07" as="sourcePoint" />
            <mxPoint x="470" y="890" as="targetPoint" />
            <Array as="points">
              <mxPoint x="550" y="891" />
              <mxPoint x="530" y="890" />
            </Array>
          </mxGeometry>
        </mxCell>
        <mxCell id="IRpaL8jZD0x_B0cJCYoF-7" value="&lt;font style=&quot;font-size: 18px;&quot;&gt;1&lt;/font&gt;" style="text;html=1;align=center;verticalAlign=middle;resizable=0;points=[];autosize=1;strokeColor=none;fillColor=none;" parent="1" vertex="1">
          <mxGeometry x="100" y="320" width="30" height="40" as="geometry" />
        </mxCell>
        <mxCell id="IRpaL8jZD0x_B0cJCYoF-9" value="&lt;font style=&quot;font-size: 18px;&quot;&gt;1&lt;/font&gt;" style="resizable=0;html=1;whiteSpace=wrap;align=right;verticalAlign=bottom;" parent="1" connectable="0" vertex="1">
          <mxGeometry x="270" y="245" as="geometry" />
        </mxCell>
        <mxCell id="IRpaL8jZD0x_B0cJCYoF-10" value="&lt;font style=&quot;font-size: 18px;&quot;&gt;1&lt;/font&gt;" style="text;html=1;align=center;verticalAlign=middle;resizable=0;points=[];autosize=1;strokeColor=none;fillColor=none;" parent="1" vertex="1">
          <mxGeometry x="1311.4" y="420" width="30" height="40" as="geometry" />
        </mxCell>
        <mxCell id="rLI0mznxGH7GtxXx1J65-1" value="&lt;font style=&quot;font-size: 14px;&quot;&gt;&lt;b&gt;city&lt;/b&gt;&lt;/font&gt;" style="ellipse;whiteSpace=wrap;html=1;strokeColor=#0e8088;fillColor=#b0e3e6;labelBackgroundColor=none;rounded=1;strokeWidth=2;" vertex="1" parent="1">
          <mxGeometry x="120" y="765.38" width="120" height="40" as="geometry" />
        </mxCell>
        <mxCell id="rLI0mznxGH7GtxXx1J65-2" value="&lt;font style=&quot;font-size: 14px;&quot;&gt;&lt;b&gt;state&lt;/b&gt;&lt;/font&gt;" style="ellipse;whiteSpace=wrap;html=1;strokeColor=#0e8088;fillColor=#b0e3e6;labelBackgroundColor=none;rounded=1;strokeWidth=2;" vertex="1" parent="1">
          <mxGeometry x="-60" y="817.5" width="120" height="40" as="geometry" />
        </mxCell>
        <mxCell id="rLI0mznxGH7GtxXx1J65-3" value="" style="endArrow=none;html=1;rounded=0;exitX=0.283;exitY=0.038;exitDx=0;exitDy=0;fillColor=#b0e3e6;strokeColor=#0e8088;entryX=1;entryY=1;entryDx=0;entryDy=0;exitPerimeter=0;" edge="1" parent="1" source="rLI0mznxGH7GtxXx1J65-1" target="XZni-A_5DqYlkL6BBme9-78">
          <mxGeometry width="50" height="50" relative="1" as="geometry">
            <mxPoint x="-598.13" y="979.72" as="sourcePoint" />
            <mxPoint x="170" y="871.36" as="targetPoint" />
            <Array as="points" />
          </mxGeometry>
        </mxCell>
        <mxCell id="rLI0mznxGH7GtxXx1J65-4" value="" style="endArrow=none;html=1;rounded=0;fillColor=#b0e3e6;strokeColor=#0e8088;entryX=0.5;entryY=1;entryDx=0;entryDy=0;exitX=0.5;exitY=0;exitDx=0;exitDy=0;" edge="1" parent="1" source="rLI0mznxGH7GtxXx1J65-2" target="XZni-A_5DqYlkL6BBme9-78">
          <mxGeometry width="50" height="50" relative="1" as="geometry">
            <mxPoint y="850" as="sourcePoint" />
            <mxPoint y="730.0000000000001" as="targetPoint" />
          </mxGeometry>
        </mxCell>
        <mxCell id="rLI0mznxGH7GtxXx1J65-5" value="" style="endArrow=none;html=1;rounded=0;shape=link;width=-4.666666666666667;exitX=1;exitY=0.5;exitDx=0;exitDy=0;entryX=0.187;entryY=0.033;entryDx=0;entryDy=0;entryPerimeter=0;" edge="1" parent="1" target="XZni-A_5DqYlkL6BBme9-22">
          <mxGeometry width="50" height="50" relative="1" as="geometry">
            <mxPoint x="585.9999999999998" y="538.36" as="sourcePoint" />
            <mxPoint x="1183.8300000000006" y="646.38" as="targetPoint" />
          </mxGeometry>
        </mxCell>
        <mxCell id="rLI0mznxGH7GtxXx1J65-6" value="&lt;font style=&quot;font-size: 14px;&quot;&gt;&lt;b&gt;are deliverd to&lt;/b&gt;&lt;/font&gt;" style="rhombus;whiteSpace=wrap;html=1;fillColor=#FFFF99;" vertex="1" parent="1">
          <mxGeometry x="498.49" y="500" width="130" height="80" as="geometry" />
        </mxCell>
        <mxCell id="rLI0mznxGH7GtxXx1J65-8" value="&lt;font style=&quot;font-size: 18px;&quot;&gt;M&lt;/font&gt;" style="resizable=0;html=1;whiteSpace=wrap;align=right;verticalAlign=bottom;" connectable="0" vertex="1" parent="1">
          <mxGeometry x="1192.66" y="640" as="geometry" />
        </mxCell>
        <mxCell id="rLI0mznxGH7GtxXx1J65-11" value="" style="endArrow=none;html=1;rounded=0;exitX=1;exitY=0.25;exitDx=0;exitDy=0;entryX=0;entryY=0.5;entryDx=0;entryDy=0;" edge="1" parent="1" source="XZni-A_5DqYlkL6BBme9-78" target="rLI0mznxGH7GtxXx1J65-6">
          <mxGeometry relative="1" as="geometry">
            <mxPoint x="280" y="590" as="sourcePoint" />
            <mxPoint x="440" y="590" as="targetPoint" />
          </mxGeometry>
        </mxCell>
        <mxCell id="rLI0mznxGH7GtxXx1J65-12" value="&lt;font style=&quot;font-size: 18px;&quot;&gt;1&lt;/font&gt;" style="resizable=0;html=1;whiteSpace=wrap;align=right;verticalAlign=bottom;" connectable="0" vertex="1" parent="1">
          <mxGeometry x="110" y="725.38" as="geometry" />
        </mxCell>
        <mxCell id="rLI0mznxGH7GtxXx1J65-14" value="" style="endArrow=none;html=1;rounded=0;exitX=1;exitY=0;exitDx=0;exitDy=0;fillColor=#b0e3e6;strokeColor=#0e8088;" edge="1" parent="1" source="XZni-A_5DqYlkL6BBme9-22">
          <mxGeometry width="50" height="50" relative="1" as="geometry">
            <mxPoint x="1460" y="650" as="sourcePoint" />
            <mxPoint x="1470" y="650" as="targetPoint" />
          </mxGeometry>
        </mxCell>
        <mxCell id="rLI0mznxGH7GtxXx1J65-15" value="&lt;font style=&quot;font-size: 14px;&quot;&gt;&lt;b&gt;zipcode&lt;/b&gt;&lt;/font&gt;" style="ellipse;whiteSpace=wrap;html=1;strokeColor=#0e8088;fillColor=#b0e3e6;labelBackgroundColor=none;rounded=1;strokeWidth=2;" vertex="1" parent="1">
          <mxGeometry x="1475.41" y="631.78" width="120.58" height="40" as="geometry" />
        </mxCell>
        <mxCell id="rLI0mznxGH7GtxXx1J65-16" value="" style="endArrow=none;dashed=1;html=1;rounded=0;entryX=-0.034;entryY=0.721;entryDx=0;entryDy=0;entryPerimeter=0;" edge="1" parent="1">
          <mxGeometry width="50" height="50" relative="1" as="geometry">
            <mxPoint x="1576.4" y="661" as="sourcePoint" />
            <mxPoint x="1481.4" y="660" as="targetPoint" />
            <Array as="points">
              <mxPoint x="1556.4" y="661" />
            </Array>
          </mxGeometry>
        </mxCell>
      </root>
    </mxGraphModel>
  </diagram>
</mxfile>
